<?xml version='1.0' encoding='UTF-8'?>
<svg width="41mm" height="41mm" version="1.1" viewBox="0 0 41 41" xmlns="http://www.w3.org/2000/svg"><path d="M2,2H3V3H2zM3,2H4V3H3zM4,2H5V3H4zM5,2H6V3H5zM6,2H7V3H6zM7,2H8V3H7zM8,2H9V3H8zM10,2H11V3H10zM11,2H12V3H11zM13,2H14V3H13zM14,2H15V3H14zM15,2H16V3H15zM16,2H17V3H16zM17,2H18V3H17zM18,2H19V3H18zM19,2H20V3H19zM21,2H22V3H21zM22,2H23V3H22zM23,2H24V3H23zM27,2H28V3H27zM29,2H30V3H29zM30,2H31V3H30zM32,2H33V3H32zM33,2H34V3H33zM34,2H35V3H34zM35,2H36V3H35zM36,2H37V3H36zM37,2H38V3H37zM38,2H39V3H38zM2,3H3V4H2zM8,3H9V4H8zM11,3H12V4H11zM12,3H13V4H12zM14,3H15V4H14zM16,3H17V4H16zM19,3H20V4H19zM21,3H22V4H21zM23,3H24V4H23zM24,3H25V4H24zM25,3H26V4H25zM26,3H27V4H26zM27,3H28V4H27zM32,3H33V4H32zM38,3H39V4H38zM2,4H3V5H2zM4,4H5V5H4zM5,4H6V5H5zM6,4H7V5H6zM8,4H9V5H8zM11,4H12V5H11zM14,4H15V5H14zM15,4H16V5H15zM16,4H17V5H16zM17,4H18V5H17zM18,4H19V5H18zM19,4H20V5H19zM20,4H21V5H20zM23,4H24V5H23zM24,4H25V5H24zM26,4H27V5H26zM29,4H30V5H29zM30,4H31V5H30zM32,4H33V5H32zM34,4H35V5H34zM35,4H36V5H35zM36,4H37V5H36zM38,4H39V5H38zM2,5H3V6H2zM4,5H5V6H4zM5,5H6V6H5zM6,5H7V6H6zM8,5H9V6H8zM10,5H11V6H10zM11,5H12V6H11zM12,5H13V6H12zM15,5H16V6H15zM16,5H17V6H16zM17,5H18V6H17zM20,5H21V6H20zM27,5H28V6H27zM28,5H29V6H28zM29,5H30V6H29zM32,5H33V6H32zM34,5H35V6H34zM35,5H36V6H35zM36,5H37V6H36zM38,5H39V6H38zM2,6H3V7H2zM4,6H5V7H4zM5,6H6V7H5zM6,6H7V7H6zM8,6H9V7H8zM10,6H11V7H10zM11,6H12V7H11zM14,6H15V7H14zM16,6H17V7H16zM19,6H20V7H19zM20,6H21V7H20zM22,6H23V7H22zM25,6H26V7H25zM26,6H27V7H26zM28,6H29V7H28zM29,6H30V7H29zM30,6H31V7H30zM32,6H33V7H32zM34,6H35V7H34zM35,6H36V7H35zM36,6H37V7H36zM38,6H39V7H38zM2,7H3V8H2zM8,7H9V8H8zM10,7H11V8H10zM13,7H14V8H13zM14,7H15V8H14zM15,7H16V8H15zM17,7H18V8H17zM19,7H20V8H19zM21,7H22V8H21zM26,7H27V8H26zM27,7H28V8H27zM28,7H29V8H28zM30,7H31V8H30zM32,7H33V8H32zM38,7H39V8H38zM2,8H3V9H2zM3,8H4V9H3zM4,8H5V9H4zM5,8H6V9H5zM6,8H7V9H6zM7,8H8V9H7zM8,8H9V9H8zM10,8H11V9H10zM12,8H13V9H12zM14,8H15V9H14zM16,8H17V9H16zM18,8H19V9H18zM20,8H21V9H20zM22,8H23V9H22zM24,8H25V9H24zM26,8H27V9H26zM28,8H29V9H28zM30,8H31V9H30zM32,8H33V9H32zM33,8H34V9H33zM34,8H35V9H34zM35,8H36V9H35zM36,8H37V9H36zM37,8H38V9H37zM38,8H39V9H38zM10,9H11V10H10zM12,9H13V10H12zM13,9H14V10H13zM14,9H15V10H14zM16,9H17V10H16zM17,9H18V10H17zM18,9H19V10H18zM21,9H22V10H21zM23,9H24V10H23zM28,9H29V10H28zM29,9H30V10H29zM30,9H31V10H30zM2,10H3V11H2zM6,10H7V11H6zM8,10H9V11H8zM9,10H10V11H9zM10,10H11V11H10zM12,10H13V11H12zM15,10H16V11H15zM17,10H18V11H17zM18,10H19V11H18zM21,10H22V11H21zM22,10H23V11H22zM28,10H29V11H28zM30,10H31V11H30zM31,10H32V11H31zM32,10H33V11H32zM33,10H34V11H33zM34,10H35V11H34zM35,10H36V11H35zM38,10H39V11H38zM3,11H4V12H3zM6,11H7V12H6zM9,11H10V12H9zM13,11H14V12H13zM20,11H21V12H20zM21,11H22V12H21zM23,11H24V12H23zM24,11H25V12H24zM26,11H27V12H26zM27,11H28V12H27zM28,11H29V12H28zM29,11H30V12H29zM30,11H31V12H30zM34,11H35V12H34zM35,11H36V12H35zM36,11H37V12H36zM37,11H38V12H37zM2,12H3V13H2zM4,12H5V13H4zM6,12H7V13H6zM8,12H9V13H8zM9,12H10V13H9zM13,12H14V13H13zM16,12H17V13H16zM17,12H18V13H17zM21,12H22V13H21zM23,12H24V13H23zM24,12H25V13H24zM25,12H26V13H25zM26,12H27V13H26zM29,12H30V13H29zM34,12H35V13H34zM4,13H5V14H4zM6,13H7V14H6zM9,13H10V14H9zM10,13H11V14H10zM13,13H14V14H13zM15,13H16V14H15zM16,13H17V14H16zM17,13H18V14H17zM18,13H19V14H18zM19,13H20V14H19zM20,13H21V14H20zM21,13H22V14H21zM22,13H23V14H22zM23,13H24V14H23zM25,13H26V14H25zM28,13H29V14H28zM30,13H31V14H30zM33,13H34V14H33zM36,13H37V14H36zM37,13H38V14H37zM2,14H3V15H2zM3,14H4V15H3zM6,14H7V15H6zM8,14H9V15H8zM10,14H11V15H10zM12,14H13V15H12zM14,14H15V15H14zM16,14H17V15H16zM19,14H20V15H19zM23,14H24V15H23zM24,14H25V15H24zM26,14H27V15H26zM28,14H29V15H28zM31,14H32V15H31zM32,14H33V15H32zM36,14H37V15H36zM37,14H38V15H37zM38,14H39V15H38zM2,15H3V16H2zM3,15H4V16H3zM4,15H5V16H4zM5,15H6V16H5zM7,15H8V16H7zM10,15H11V16H10zM11,15H12V16H11zM12,15H13V16H12zM15,15H16V16H15zM17,15H18V16H17zM20,15H21V16H20zM23,15H24V16H23zM25,15H26V16H25zM28,15H29V16H28zM29,15H30V16H29zM30,15H31V16H30zM34,15H35V16H34zM35,15H36V16H35zM3,16H4V17H3zM6,16H7V17H6zM8,16H9V17H8zM9,16H10V17H9zM10,16H11V17H10zM11,16H12V17H11zM12,16H13V17H12zM13,16H14V17H13zM14,16H15V17H14zM15,16H16V17H15zM16,16H17V17H16zM17,16H18V17H17zM18,16H19V17H18zM19,16H20V17H19zM22,16H23V17H22zM25,16H26V17H25zM26,16H27V17H26zM28,16H29V17H28zM29,16H30V17H29zM30,16H31V17H30zM31,16H32V17H31zM32,16H33V17H32zM33,16H34V17H33zM34,16H35V17H34zM35,16H36V17H35zM36,16H37V17H36zM5,17H6V18H5zM6,17H7V18H6zM7,17H8V18H7zM10,17H11V18H10zM14,17H15V18H14zM15,17H16V18H15zM17,17H18V18H17zM19,17H20V18H19zM20,17H21V18H20zM21,17H22V18H21zM24,17H25V18H24zM25,17H26V18H25zM26,17H27V18H26zM28,17H29V18H28zM29,17H30V18H29zM33,17H34V18H33zM34,17H35V18H34zM36,17H37V18H36zM37,17H38V18H37zM38,17H39V18H38zM3,18H4V19H3zM8,18H9V19H8zM9,18H10V19H9zM11,18H12V19H11zM12,18H13V19H12zM13,18H14V19H13zM16,18H17V19H16zM20,18H21V19H20zM24,18H25V19H24zM26,18H27V19H26zM28,18H29V19H28zM30,18H31V19H30zM31,18H32V19H31zM32,18H33V19H32zM35,18H36V19H35zM36,18H37V19H36zM38,18H39V19H38zM4,19H5V20H4zM5,19H6V20H5zM6,19H7V20H6zM7,19H8V20H7zM10,19H11V20H10zM12,19H13V20H12zM13,19H14V20H13zM14,19H15V20H14zM15,19H16V20H15zM18,19H19V20H18zM19,19H20V20H19zM21,19H22V20H21zM22,19H23V20H22zM23,19H24V20H23zM29,19H30V20H29zM30,19H31V20H30zM34,19H35V20H34zM37,19H38V20H37zM5,20H6V21H5zM6,20H7V21H6zM7,20H8V21H7zM8,20H9V21H8zM9,20H10V21H9zM10,20H11V21H10zM15,20H16V21H15zM18,20H19V21H18zM20,20H21V21H20zM22,20H23V21H22zM27,20H28V21H27zM28,20H29V21H28zM29,20H30V21H29zM32,20H33V21H32zM33,20H34V21H33zM35,20H36V21H35zM2,21H3V22H2zM4,21H5V22H4zM5,21H6V22H5zM7,21H8V22H7zM9,21H10V22H9zM10,21H11V22H10zM13,21H14V22H13zM16,21H17V22H16zM19,21H20V22H19zM20,21H21V22H20zM23,21H24V22H23zM26,21H27V22H26zM29,21H30V22H29zM31,21H32V22H31zM32,21H33V22H32zM33,21H34V22H33zM34,21H35V22H34zM36,21H37V22H36zM37,21H38V22H37zM2,22H3V23H2zM7,22H8V23H7zM8,22H9V23H8zM13,22H14V23H13zM16,22H17V23H16zM17,22H18V23H17zM18,22H19V23H18zM19,22H20V23H19zM21,22H22V23H21zM22,22H23V23H22zM23,22H24V23H23zM25,22H26V23H25zM31,22H32V23H31zM32,22H33V23H32zM33,22H34V23H33zM36,22H37V23H36zM3,23H4V24H3zM6,23H7V24H6zM7,23H8V24H7zM12,23H13V24H12zM17,23H18V24H17zM18,23H19V24H18zM19,23H20V24H19zM20,23H21V24H20zM25,23H26V24H25zM27,23H28V24H27zM28,23H29V24H28zM29,23H30V24H29zM30,23H31V24H30zM33,23H34V24H33zM34,23H35V24H34zM37,23H38V24H37zM3,24H4V25H3zM8,24H9V25H8zM9,24H10V25H9zM10,24H11V25H10zM12,24H13V25H12zM14,24H15V25H14zM17,24H18V25H17zM18,24H19V25H18zM20,24H21V25H20zM23,24H24V25H23zM24,24H25V25H24zM25,24H26V25H25zM27,24H28V25H27zM29,24H30V25H29zM32,24H33V25H32zM33,24H34V25H33zM34,24H35V25H34zM35,24H36V25H35zM36,24H37V25H36zM2,25H3V26H2zM3,25H4V26H3zM4,25H5V26H4zM5,25H6V26H5zM6,25H7V26H6zM7,25H8V26H7zM10,25H11V26H10zM11,25H12V26H11zM14,25H15V26H14zM15,25H16V26H15zM17,25H18V26H17zM18,25H19V26H18zM22,25H23V26H22zM23,25H24V26H23zM25,25H26V26H25zM29,25H30V26H29zM31,25H32V26H31zM33,25H34V26H33zM34,25H35V26H34zM36,25H37V26H36zM37,25H38V26H37zM3,26H4V27H3zM4,26H5V27H4zM5,26H6V27H5zM7,26H8V27H7zM8,26H9V27H8zM9,26H10V27H9zM12,26H13V27H12zM13,26H14V27H13zM15,26H16V27H15zM16,26H17V27H16zM17,26H18V27H17zM18,26H19V27H18zM22,26H23V27H22zM25,26H26V27H25zM26,26H27V27H26zM28,26H29V27H28zM30,26H31V27H30zM31,26H32V27H31zM32,26H33V27H32zM33,26H34V27H33zM35,26H36V27H35zM36,26H37V27H36zM38,26H39V27H38zM2,27H3V28H2zM3,27H4V28H3zM4,27H5V28H4zM5,27H6V28H5zM12,27H13V28H12zM19,27H20V28H19zM20,27H21V28H20zM21,27H22V28H21zM23,27H24V28H23zM24,27H25V28H24zM26,27H27V28H26zM27,27H28V28H27zM29,27H30V28H29zM30,27H31V28H30zM33,27H34V28H33zM34,27H35V28H34zM35,27H36V28H35zM36,27H37V28H36zM4,28H5V29H4zM5,28H6V29H5zM6,28H7V29H6zM8,28H9V29H8zM9,28H10V29H9zM11,28H12V29H11zM12,28H13V29H12zM15,28H16V29H15zM17,28H18V29H17zM20,28H21V29H20zM21,28H22V29H21zM25,28H26V29H25zM27,28H28V29H27zM28,28H29V29H28zM29,28H30V29H29zM31,28H32V29H31zM33,28H34V29H33zM35,28H36V29H35zM36,28H37V29H36zM4,29H5V30H4zM6,29H7V30H6zM10,29H11V30H10zM11,29H12V30H11zM12,29H13V30H12zM13,29H14V30H13zM14,29H15V30H14zM16,29H17V30H16zM17,29H18V30H17zM18,29H19V30H18zM19,29H20V30H19zM21,29H22V30H21zM22,29H23V30H22zM23,29H24V30H23zM26,29H27V30H26zM28,29H29V30H28zM29,29H30V30H29zM30,29H31V30H30zM32,29H33V30H32zM33,29H34V30H33zM34,29H35V30H34zM36,29H37V30H36zM37,29H38V30H37zM2,30H3V31H2zM3,30H4V31H3zM5,30H6V31H5zM6,30H7V31H6zM7,30H8V31H7zM8,30H9V31H8zM10,30H11V31H10zM12,30H13V31H12zM13,30H14V31H13zM14,30H15V31H14zM16,30H17V31H16zM18,30H19V31H18zM19,30H20V31H19zM22,30H23V31H22zM23,30H24V31H23zM24,30H25V31H24zM26,30H27V31H26zM29,30H30V31H29zM30,30H31V31H30zM31,30H32V31H31zM32,30H33V31H32zM33,30H34V31H33zM34,30H35V31H34zM36,30H37V31H36zM38,30H39V31H38zM10,31H11V32H10zM12,31H13V32H12zM13,31H14V32H13zM15,31H16V32H15zM17,31H18V32H17zM18,31H19V32H18zM23,31H24V32H23zM24,31H25V32H24zM25,31H26V32H25zM27,31H28V32H27zM28,31H29V32H28zM30,31H31V32H30zM34,31H35V32H34zM37,31H38V32H37zM2,32H3V33H2zM3,32H4V33H3zM4,32H5V33H4zM5,32H6V33H5zM6,32H7V33H6zM7,32H8V33H7zM8,32H9V33H8zM10,32H11V33H10zM11,32H12V33H11zM13,32H14V33H13zM16,32H17V33H16zM17,32H18V33H17zM19,32H20V33H19zM22,32H23V33H22zM25,32H26V33H25zM30,32H31V33H30zM32,32H33V33H32zM34,32H35V33H34zM2,33H3V34H2zM8,33H9V34H8zM11,33H12V34H11zM13,33H14V34H13zM15,33H16V34H15zM17,33H18V34H17zM19,33H20V34H19zM20,33H21V34H20zM24,33H25V34H24zM25,33H26V34H25zM26,33H27V34H26zM30,33H31V34H30zM34,33H35V34H34zM35,33H36V34H35zM36,33H37V34H36zM2,34H3V35H2zM4,34H5V35H4zM5,34H6V35H5zM6,34H7V35H6zM8,34H9V35H8zM10,34H11V35H10zM13,34H14V35H13zM14,34H15V35H14zM16,34H17V35H16zM20,34H21V35H20zM21,34H22V35H21zM24,34H25V35H24zM28,34H29V35H28zM30,34H31V35H30zM31,34H32V35H31zM32,34H33V35H32zM33,34H34V35H33zM34,34H35V35H34zM35,34H36V35H35zM36,34H37V35H36zM37,34H38V35H37zM2,35H3V36H2zM4,35H5V36H4zM5,35H6V36H5zM6,35H7V36H6zM8,35H9V36H8zM11,35H12V36H11zM14,35H15V36H14zM15,35H16V36H15zM16,35H17V36H16zM18,35H19V36H18zM21,35H22V36H21zM22,35H23V36H22zM25,35H26V36H25zM26,35H27V36H26zM31,35H32V36H31zM32,35H33V36H32zM33,35H34V36H33zM35,35H36V36H35zM38,35H39V36H38zM2,36H3V37H2zM4,36H5V37H4zM5,36H6V37H5zM6,36H7V37H6zM8,36H9V37H8zM12,36H13V37H12zM15,36H16V37H15zM16,36H17V37H16zM18,36H19V37H18zM19,36H20V37H19zM20,36H21V37H20zM22,36H23V37H22zM23,36H24V37H23zM25,36H26V37H25zM31,36H32V37H31zM32,36H33V37H32zM36,36H37V37H36zM2,37H3V38H2zM8,37H9V38H8zM12,37H13V38H12zM13,37H14V38H13zM14,37H15V38H14zM19,37H20V38H19zM23,37H24V38H23zM24,37H25V38H24zM28,37H29V38H28zM29,37H30V38H29zM32,37H33V38H32zM34,37H35V38H34zM36,37H37V38H36zM37,37H38V38H37zM2,38H3V39H2zM3,38H4V39H3zM4,38H5V39H4zM5,38H6V39H5zM6,38H7V39H6zM7,38H8V39H7zM8,38H9V39H8zM10,38H11V39H10zM12,38H13V39H12zM14,38H15V39H14zM15,38H16V39H15zM17,38H18V39H17zM19,38H20V39H19zM21,38H22V39H21zM22,38H23V39H22zM23,38H24V39H23zM24,38H25V39H24zM29,38H30V39H29zM33,38H34V39H33zM36,38H37V39H36zM37,38H38V39H37zM38,38H39V39H38z" id="qr-path" fill="#000000" fill-opacity="1" fill-rule="nonzero" stroke="none" /></svg>